<?xml version="1.0" encoding="UTF-8"?>
<svg id="Calque_1" xmlns="http://www.w3.org/2000/svg" viewBox="0 0 300 300">
  <defs>
    <style>
      .cls-1 {
        fill: #253e7c;
      }

      .cls-2 {
        fill: #fff;
      }

      .cls-3 {
        fill: #f26b17;
      }
    </style>
  </defs>
  <rect class="cls-1" x="65.84" y="38.97" width="166.35" height="166.35" rx="30.34" ry="30.34"/>
  <g>
    <path class="cls-1" d="M82.23,221.35h5.7v7.97l6.79-7.97h6.73l-7.47,8.44,8.06,11.76h-6.82l-5.2-7.64-2.09,2.29v5.35h-5.7v-20.2Z"/>
    <path class="cls-1" d="M102.58,233.93c0-4.32,3.91-7.94,8.59-7.94s8.56,3.62,8.56,7.94-3.91,7.97-8.56,7.97-8.59-3.65-8.59-7.97ZM114.43,233.93c0-1.76-1.5-3.23-3.26-3.23s-3.29,1.47-3.29,3.23,1.5,3.26,3.29,3.26,3.26-1.5,3.26-3.26Z"/>
    <path class="cls-1" d="M147.06,231.87v9.7h-5.41v-8.67c0-1.29-.88-2.21-2.15-2.21s-2.15.85-2.15,2.03v8.85h-5.41v-8.67c0-1.29-.88-2.21-2.15-2.21s-2.15.85-2.15,2.03v8.82h-5.67v-15.2h5.67v1.85c.74-1.35,2.15-2.21,3.94-2.21,1.97,0,3.73.94,4.76,2.5.88-1.53,2.71-2.5,4.94-2.5,3.18,0,5.76,2.44,5.76,5.88Z"/>
    <path class="cls-1" d="M150.98,221.35h5.7v7.97l6.79-7.97h6.73l-7.47,8.44,8.06,11.76h-6.82l-5.2-7.64-2.09,2.29v5.35h-5.7v-20.2Z"/>
    <path class="cls-1" d="M171.32,233.93c0-4.32,3.91-7.94,8.59-7.94s8.56,3.62,8.56,7.94-3.91,7.97-8.56,7.97-8.59-3.65-8.59-7.97ZM183.17,233.93c0-1.76-1.5-3.23-3.26-3.23s-3.29,1.47-3.29,3.23,1.5,3.26,3.29,3.26,3.26-1.5,3.26-3.26Z"/>
    <path class="cls-1" d="M215.81,231.87v9.7h-5.41v-8.67c0-1.29-.88-2.21-2.15-2.21s-2.15.85-2.15,2.03v8.85h-5.41v-8.67c0-1.29-.88-2.21-2.15-2.21s-2.15.85-2.15,2.03v8.82h-5.67v-15.2h5.67v1.85c.74-1.35,2.15-2.21,3.94-2.21,1.97,0,3.73.94,4.76,2.5.88-1.53,2.71-2.5,4.94-2.5,3.18,0,5.76,2.44,5.76,5.88Z"/>
  </g>
  <g>
    <g>
      <path class="cls-3" d="M181.87,144.37l7.67,8.51c2.69-3.37,4.97-7.08,6.79-11.01l6.07,1.29-7.44-22.9-16.12,17.9,5.79,1.23c-.81,1.72-1.73,3.39-2.76,5Z"/>
      <path class="cls-3" d="M163.99,160.03c-5.56,2.61-11.7,4.06-17.94,4.14-2.4.04-4.81-.11-7.19-.47-6.51-.97-12.84-3.42-18.36-7.18-1.14-.77-2.25-1.6-3.32-2.49-2.45-2.02-4.69-4.32-6.7-6.81-1.41-1.82-2.7-3.72-3.85-5.72-1.15-2-2.1-4.1-2.94-6.26-3.3-8.64-3.87-18.41-1.55-27.52,2.3-9.12,7.5-17.57,14.76-23.8.09-.08.18-.16.28-.23,6.07-5.17,13.54-8.76,21.46-10.3,1.46-.29,2.94-.5,4.42-.64,7.55-.78,15.3.31,22.43,3.15l.22-.26c-2.55-1.18-5.2-2.14-7.94-2.84-4.81-1.25-9.82-1.79-14.82-1.53-4.08.18-8.16.9-12.08,2.12-4.85,1.5-9.49,3.74-13.69,6.66-.73.51-1.45,1.03-2.15,1.58-8.04,6.22-14.15,15.02-17.16,24.89-3.04,9.86-2.99,20.71.23,30.67.82,2.49,1.79,4.93,2.98,7.27,1.19,2.34,2.56,4.6,4.07,6.75,3.08,4.27,6.78,8.13,11.03,11.31.33.25.66.5,1,.74,1.61,1.17,3.3,2.23,5.04,3.2l.66.36c2.34,1.26,4.79,2.37,7.31,3.24,5.04,1.79,10.38,2.79,15.75,2.98,2.68.06,5.38,0,8.07-.34,2.68-.32,5.35-.81,7.96-1.56,2.61-.72,5.18-1.63,7.65-2.77.45-.2.9-.42,1.35-.63l-6.71-7.43-.27-.3Z"/>
    </g>
    <path class="cls-2" d="M188.63,153.98l-7.58-8.4-5.49-6.09-18.48-20.49,9.04-10.51,30.19-35.11h-26.86l-2.42,2.87-.16.2-17.17,20.44-10.84,12.91v-35.03c-7.68,1.5-14.86,4.95-20.76,9.97l-.28.23c-.21.18-.43.37-.64.56v66.62c.3.26.6.51.9.76,1.01.84,2.08,1.65,3.21,2.4,5.22,3.56,11.29,5.95,17.57,6.92v-32.77l20.22,22.85,6.22,7.03,7.68,8.5,26.91.09-11.26-14Z"/>
  </g>
</svg>